<?xml version="1.0" standalone="no"?>
<!DOCTYPE svg PUBLIC "-//W3C//DTD SVG 20010904//EN"
 "http://www.w3.org/TR/2001/REC-SVG-20010904/DTD/svg10.dtd">
<svg version="1.0" xmlns="http://www.w3.org/2000/svg"
 width="96.000000pt" height="96.000000pt" viewBox="0 0 96.000000 96.000000"
 preserveAspectRatio="xMidYMid meet">

<g transform="translate(0.000000,96.000000) scale(0.100000,-0.100000)"
fill="#097bed" stroke="#097bed" stroke-width="20" stroke-linecap="round" stroke-linejoin="round">
<path d="M419 931 c-16 -16 -29 -40 -29 -53 0 -21 -23 -38 -165 -117 l-165
-93 0 -218 0 -218 206 -116 c114 -64 210 -116 215 -116 5 0 101 52 214 116
l205 116 -2 227 c-3 194 -5 226 -18 229 -9 1 -89 -38 -177 -88 -136 -77 -165
-90 -182 -81 -55 30 -131 -16 -131 -79 0 -43 47 -90 90 -90 38 0 90 47 90 82
0 20 22 36 135 100 l135 76 0 -171 -1 -172 -170 -95 c-94 -52 -179 -95 -188
-95 -10 0 -95 43 -189 95 l-171 95 0 185 -1 185 150 83 c124 69 153 81 169 73
55 -30 131 16 131 79 0 22 -9 41 -29 61 -40 39 -82 39 -122 0z m81 -61 c0 -13
-7 -20 -20 -20 -13 0 -20 7 -20 20 0 13 7 20 20 20 13 0 20 -7 20 -20z m0
-430 c0 -13 -7 -20 -20 -20 -13 0 -20 7 -20 20 0 13 7 20 20 20 13 0 20 -7 20
-20z"/>
</g>
</svg>
